<?xml version="1.0" standalone="no"?>
<!DOCTYPE svg PUBLIC "-//W3C//DTD SVG 20010904//EN"
 "http://www.w3.org/TR/2001/REC-SVG-20010904/DTD/svg10.dtd">
<svg version="1.0" xmlns="http://www.w3.org/2000/svg"
 width="720.000000pt" height="480.000000pt" viewBox="0 0 720.000000 480.000000"
 preserveAspectRatio="xMidYMid meet">

<g transform="translate(0.000000,480.000000) scale(0.100000,-0.100000)"
fill="#000000" stroke="none">
<path d="M3244 3256 c-65 -30 -116 -76 -163 -145 -149 -219 -234 -536 -259
-961 -8 -123 -12 -143 -45 -223 -58 -143 -111 -194 -157 -152 -26 24 -60 117
-60 163 1 33 5 39 43 58 83 41 131 161 97 244 -16 38 -65 80 -93 80 -110 0
-202 -96 -222 -233 -8 -54 -40 -87 -85 -87 -27 0 -27 0 -26 68 1 78 -17 130
-50 143 -32 11 -52 2 -69 -32 -30 -57 -11 -159 35 -192 l21 -15 -22 -51 c-24
-56 -71 -103 -94 -95 -21 9 -33 57 -45 184 -17 176 -17 179 -53 201 -34 20
-71 19 -95 -5 -8 -7 -22 -58 -33 -112 -48 -249 -110 -357 -150 -261 -17 39
-17 244 0 361 14 102 10 108 -96 114 -161 9 -303 -30 -524 -144 -457 -237
-604 -286 -712 -240 -121 52 -119 228 4 291 35 19 39 19 39 1 0 -8 11 -27 24
-42 41 -48 126 -32 126 23 0 8 -11 25 -25 38 -20 21 -34 25 -80 25 -64 0 -106
-15 -153 -55 -106 -90 -112 -281 -10 -359 50 -38 84 -47 172 -47 145 0 203 26
489 213 214 140 338 205 457 237 115 32 105 47 105 -157 0 -190 10 -258 50
-327 50 -87 147 -94 208 -14 34 46 67 113 87 176 l16 53 12 -58 c18 -82 51
-142 92 -163 91 -49 171 4 237 156 20 48 23 50 64 53 23 2 50 7 60 12 15 9 18
3 24 -39 16 -114 92 -219 177 -242 102 -27 165 15 238 158 26 52 29 55 30 29
1 -100 77 -288 134 -331 132 -101 299 25 425 321 23 55 31 65 36 49 22 -66 31
-84 58 -126 53 -82 133 -119 209 -98 53 14 111 72 153 152 17 31 33 57 36 57
3 0 11 -21 18 -47 26 -103 104 -173 191 -173 76 0 141 53 181 147 18 41 27 52
51 57 17 3 46 22 65 41 19 19 37 35 39 35 2 0 4 -29 4 -64 0 -83 16 -165 36
-188 21 -22 79 -34 108 -20 18 8 24 23 34 85 20 128 88 322 130 370 33 37 37
25 57 -145 18 -156 32 -192 79 -214 31 -15 37 -15 57 -3 17 12 26 38 44 127
33 160 60 244 89 271 46 43 53 21 58 -162 4 -187 20 -239 90 -303 38 -34 44
-36 92 -31 44 4 55 10 87 46 20 23 48 68 61 101 l24 60 13 -37 c23 -62 59
-111 103 -140 37 -25 50 -28 127 -28 131 1 197 28 498 201 89 51 197 111 240
132 220 110 410 132 453 53 32 -61 -16 -149 -107 -195 l-33 -16 -14 34 c-8 19
-23 39 -34 45 -74 40 -140 -38 -76 -88 53 -42 165 -21 242 44 81 68 114 197
66 261 -42 57 -69 69 -162 72 -184 8 -347 -66 -640 -287 -226 -169 -302 -212
-385 -213 -71 -1 -127 86 -127 198 0 36 3 43 24 48 36 9 84 53 106 97 24 47
27 137 5 179 -34 65 -120 75 -197 24 -21 -13 -38 -21 -38 -17 0 5 -14 -21 -30
-56 -17 -35 -35 -95 -41 -135 -14 -90 -64 -245 -93 -288 -25 -38 -50 -47 -60
-21 -4 10 -10 103 -12 208 -6 214 -18 270 -65 310 -24 20 -41 25 -83 25 -47 0
-55 -4 -88 -37 -38 -40 -108 -173 -108 -207 0 -44 -12 -3 -21 71 -5 43 -14 93
-20 110 -19 59 -78 80 -139 48 -55 -29 -125 -155 -156 -283 -21 -84 -34 -100
-34 -41 0 62 -17 117 -45 145 -19 19 -35 24 -75 24 l-50 0 0 -35 c0 -47 -20
-93 -60 -138 -57 -65 -61 -56 -73 168 -2 39 -11 84 -20 102 -62 119 -249 103
-329 -27 -15 -25 -37 -83 -48 -129 -26 -104 -78 -208 -133 -268 -70 -76 -109
-77 -146 -5 -47 92 -51 235 -11 348 20 59 53 104 66 91 12 -11 6 -108 -9 -158
-16 -53 -10 -72 33 -94 69 -36 94 -8 94 105 1 60 -4 85 -24 124 -34 69 -68 91
-134 90 -111 -3 -182 -81 -205 -224 -11 -65 -77 -224 -133 -318 -45 -74 -122
-158 -158 -170 -24 -9 -33 -7 -53 8 -38 30 -49 89 -54 301 l-5 196 46 32 c98
68 259 288 366 501 163 326 182 552 50 621 -53 29 -170 26 -236 -5z m193 -28
c68 -33 71 -197 9 -383 -68 -204 -190 -422 -321 -577 -32 -37 -67 -74 -79 -82
l-22 -14 13 111 c39 329 126 686 203 838 56 108 121 144 197 107z m-803 -984
c19 -51 -9 -149 -54 -189 l-23 -20 6 70 c9 111 51 192 71 139z m1560 0 c7 -19
8 -92 0 -119 -3 -12 -15 -25 -27 -30 -50 -23 -59 -110 -17 -168 41 -54 9 -177
-48 -185 -38 -6 -64 88 -64 230 -1 118 23 207 67 254 35 37 78 46 89 18z
m1522 -10 c11 -43 -2 -113 -30 -154 -39 -59 -50 -52 -42 27 7 70 37 153 55
153 6 0 14 -12 17 -26z"/>
</g>
</svg>
