<?xml version="1.0" standalone="no"?>
<!DOCTYPE svg PUBLIC "-//W3C//DTD SVG 20010904//EN"
 "http://www.w3.org/TR/2001/REC-SVG-20010904/DTD/svg10.dtd">
<svg version="1.0" xmlns="http://www.w3.org/2000/svg"
 width="612.000000pt" height="408.000000pt" viewBox="0 0 612.000000 408.000000"
 preserveAspectRatio="xMidYMid meet">

<g transform="translate(0.000000,408.000000) scale(0.100000,-0.100000)"
fill="#000000" stroke="none">
<path d="M0 2040 l0 -2040 3060 0 3060 0 0 2040 0 2040 -3060 0 -3060 0 0
-2040z m2898 753 c-16 -2 -40 -2 -55 0 -16 2 -3 4 27 4 30 0 43 -2 28 -4z
m-108 -13 c-8 -5 -19 -10 -25 -10 -5 0 -3 5 5 10 8 5 20 10 25 10 6 0 3 -5 -5
-10z m174 1 c4 -5 -3 -7 -14 -4 -23 6 -26 13 -6 13 8 0 17 -4 20 -9z m-250
-40 c-50 -35 -88 -80 -126 -148 -39 -69 -48 -69 -11 0 29 55 142 177 164 177
6 0 -6 -13 -27 -29z m316 -34 c0 -7 -6 -3 -12 8 -6 11 -16 27 -22 35 -6 9 -1
5 12 -8 12 -13 22 -28 22 -35z m-176 34 c-22 -10 -51 -31 -63 -47 -19 -23 -20
-24 -9 -4 18 29 74 70 97 70 9 0 -2 -9 -25 -19z m87 -17 c20 -22 24 -36 25
-102 l2 -77 -7 79 c-6 69 -11 82 -35 102 -15 13 -23 24 -18 24 5 0 19 -12 33
-26z m96 -66 c-3 -7 -5 -2 -5 12 0 14 2 19 5 13 2 -7 2 -19 0 -25z m-284 -33
c-3 -9 -8 -14 -10 -11 -3 3 -2 9 2 15 9 16 15 13 8 -4z m284 -67 c-3 -8 -6 -5
-6 6 -1 11 2 17 5 13 3 -3 4 -12 1 -19z m-80 -50 c-3 -7 -5 -2 -5 12 0 14 2
19 5 13 2 -7 2 -19 0 -25z m-431 -39 c-14 -30 -25 -50 -25 -46 -1 12 41 108
45 104 3 -2 -7 -28 -20 -58z m501 29 c-3 -8 -6 -5 -6 6 -1 11 2 17 5 13 3 -3
4 -12 1 -19z m-343 -72 c-3 -15 -8 -25 -11 -23 -2 3 -1 17 3 31 3 15 8 25 11
23 2 -3 1 -17 -3 -31z m241 -26 c-9 -28 -19 -50 -21 -48 -2 2 4 27 13 56 9 28
19 50 21 47 2 -2 -4 -27 -13 -55z m82 28 c-3 -8 -6 -5 -6 6 -1 11 2 17 5 13 3
-3 4 -12 1 -19z m-16 -45 c-12 -20 -14 -14 -5 12 4 9 9 14 11 11 3 -2 0 -13
-6 -23z m-324 -15 c-3 -8 -6 -5 -6 6 -1 11 2 17 5 13 3 -3 4 -12 1 -19z m219
-65 c-8 -15 -15 -25 -16 -21 0 12 23 58 27 54 3 -2 -2 -17 -11 -33z m75 10
c-12 -20 -14 -14 -5 12 4 9 9 14 11 11 3 -2 0 -13 -6 -23z m-494 -15 c-3 -8
-6 -5 -6 6 -1 11 2 17 5 13 3 -3 4 -12 1 -19z m180 -20 c-3 -8 -6 -5 -6 6 -1
11 2 17 5 13 3 -3 4 -12 1 -19z m-190 -20 c-3 -8 -6 -5 -6 6 -1 11 2 17 5 13
3 -3 4 -12 1 -19z m448 -64 c-19 -38 -44 -80 -56 -94 -11 -14 -1 9 21 50 23
41 46 85 52 98 6 12 13 20 15 18 2 -2 -12 -35 -32 -72z m-89 -35 c-71 -126
-210 -309 -235 -309 -4 0 15 24 42 53 64 68 138 173 190 269 23 42 43 75 45
73 2 -2 -17 -41 -42 -86z m-369 49 c-3 -7 -5 -2 -5 12 0 14 2 19 5 13 2 -7 2
-19 0 -25z m180 -30 c-3 -7 -5 -2 -5 12 0 14 2 19 5 13 2 -7 2 -19 0 -25z
m-190 -20 c-3 -8 -6 -5 -6 6 -1 11 2 17 5 13 3 -3 4 -12 1 -19z m180 -40 c-3
-7 -5 -2 -5 12 0 14 2 19 5 13 2 -7 2 -19 0 -25z m-190 -10 c-3 -8 -6 -5 -6 6
-1 11 2 17 5 13 3 -3 4 -12 1 -19z m180 -55 c-3 -10 -5 -4 -5 12 0 17 2 24 5
18 2 -7 2 -21 0 -30z m-190 -10 c-3 -10 -5 -4 -5 12 0 17 2 24 5 18 2 -7 2
-21 0 -30z m407 15 c-65 -110 -254 -312 -254 -272 0 8 5 14 11 14 20 0 131
114 187 193 30 42 57 77 59 77 2 0 1 -6 -3 -12z m-227 -70 c-3 -8 -6 -5 -6 6
-1 11 2 17 5 13 3 -3 4 -12 1 -19z m-190 -40 c-2 -13 -4 -5 -4 17 -1 22 1 32
4 23 2 -10 2 -28 0 -40z m-184 25 c-7 -2 -19 -2 -25 0 -7 3 -2 5 12 5 14 0 19
-2 13 -5z m922 -7 c23 -10 41 -28 55 -56 12 -23 19 -44 17 -46 -2 -3 -10 9
-16 25 -18 42 -51 69 -96 80 -25 5 -31 9 -17 10 12 1 38 -5 57 -13z m383 7
c-10 -2 -26 -2 -35 0 -10 3 -2 5 17 5 19 0 27 -2 18 -5z m837 -5 c-40 -14 -73
-45 -97 -91 -11 -22 -22 -37 -24 -34 -7 7 39 78 67 103 26 23 46 32 69 32 8 0
2 -4 -15 -10z m478 5 c-7 -2 -19 -2 -25 0 -7 3 -2 5 12 5 14 0 19 -2 13 -5z
m-3450 -10 c-24 -2 -62 -2 -85 0 -24 2 -5 4 42 4 47 0 66 -2 43 -4z m891 -24
c14 -17 26 -38 26 -47 -1 -9 -7 -3 -14 14 -8 17 -24 39 -37 48 -13 9 -18 16
-12 16 6 0 23 -14 37 -31z m750 20 c-32 -9 -104 -79 -104 -101 0 -6 -3 -9 -6
-5 -11 10 35 75 69 96 18 11 41 20 52 20 13 -1 9 -4 -11 -10z m433 5 c-3 -3
-12 -4 -19 -1 -8 3 -5 6 6 6 11 1 17 -2 13 -5z m135 -14 c30 -23 52 -71 45
-97 -3 -12 -5 -10 -6 9 -1 30 -44 86 -75 98 -15 6 -16 9 -5 9 9 1 28 -8 41
-19z m571 2 c9 -10 19 -34 22 -53 5 -32 5 -33 -4 -5 -6 15 -18 37 -27 47 -23
25 -84 25 -116 0 -35 -28 -89 -133 -114 -226 -13 -44 -23 -72 -23 -62 -3 64
81 250 131 292 37 31 106 35 131 7z m290 -2 c24 -19 55 -86 44 -96 -2 -3 -8 7
-11 22 -11 43 -36 73 -70 83 -22 7 -25 9 -10 10 12 1 33 -8 47 -19z m334 14
c-3 -3 -12 -4 -19 -1 -8 3 -5 6 6 6 11 1 17 -2 13 -5z m108 -20 c14 -15 25
-34 24 -43 0 -11 -3 -10 -9 5 -4 12 -21 31 -36 43 -14 11 -21 21 -15 21 7 0
23 -12 36 -26z m-3668 10 c-3 -3 -12 -4 -19 -1 -8 3 -5 6 6 6 11 1 17 -2 13
-5z m233 -9 c6 -8 10 -22 7 -32 -4 -14 -5 -14 -6 4 0 12 -9 27 -18 32 -10 6
-13 11 -7 11 6 0 17 -7 24 -15z m1934 -7 c-16 -12 -32 -27 -36 -33 -4 -5 -14
-19 -23 -30 -15 -19 -15 -18 -1 11 15 30 61 73 80 74 5 0 -4 -10 -20 -22z
m-1312 -22 c-17 -19 -33 -44 -37 -56 -4 -12 -9 -19 -12 -17 -7 8 16 48 45 80
37 39 40 34 4 -7z m2628 10 c-14 -13 -27 -21 -30 -19 -4 4 40 42 50 43 2 0 -7
-11 -20 -24z m-2133 -8 c-3 -8 -6 -5 -6 6 -1 11 2 17 5 13 3 -3 4 -12 1 -19z
m-2113 -9 c30 -24 34 -60 9 -80 -15 -11 -16 -11 -5 1 17 20 15 55 -5 71 -9 8
-41 17 -72 20 l-56 6 51 2 c38 1 58 -4 78 -20z m-177 -18 c-31 -20 -54 -46
-71 -78 -14 -26 -25 -44 -26 -40 0 4 9 26 20 48 19 37 90 99 113 99 6 0 -10
-13 -36 -29z m960 23 c-3 -3 -12 -4 -19 -1 -8 3 -5 6 6 6 11 1 17 -2 13 -5z
m977 -2 c3 -5 -1 -9 -9 -9 -8 0 -12 4 -9 9 3 4 7 8 9 8 2 0 6 -4 9 -8z m1332
-20 c1 -18 1 -19 -3 -2 -6 28 -31 25 -67 -7 l-31 -28 30 33 c34 38 69 40 71 4z
m1288 20 c3 -5 -1 -9 -9 -9 -8 0 -12 4 -9 9 3 4 7 8 9 8 2 0 6 -4 9 -8z
m-1735 -19 c0 -12 -2 -14 -6 -5 -4 10 -11 5 -24 -15 -10 -15 -19 -24 -19 -20
0 13 32 57 41 57 5 0 9 -8 8 -17z m2588 11 c-3 -3 -12 -4 -19 -1 -8 3 -5 6 6
6 11 1 17 -2 13 -5z m130 0 c-3 -3 -12 -4 -19 -1 -8 3 -5 6 6 6 11 1 17 -2 13
-5z m-4122 -29 c14 -13 25 -32 25 -42 -1 -11 -6 -6 -14 13 -21 47 -72 59 -110
27 -21 -18 -21 -18 -2 5 26 30 70 29 101 -3z m3942 19 c-3 -3 -12 -4 -19 -1
-8 3 -5 6 6 6 11 1 17 -2 13 -5z m218 -4 c3 -6 -1 -7 -9 -4 -18 7 -21 14 -7
14 6 0 13 -4 16 -10z m-5500 -30 c9 -18 26 -32 43 -36 44 -10 48 -12 19 -13
-28 -1 -69 30 -79 59 -7 21 -53 -11 -78 -53 -11 -18 -20 -26 -20 -18 0 16 73
91 89 91 6 0 17 -13 26 -30z m775 20 c-8 -5 -19 -10 -25 -10 -5 0 -3 5 5 10 8
5 20 10 25 10 6 0 3 -5 -5 -10z m147 -142 c-2 -29 -3 -6 -3 52 0 58 1 81 3 53
2 -29 2 -77 0 -105z m548 127 c-19 -18 -25 -36 -27 -72 -1 -39 -2 -42 -5 -14
-7 55 17 111 47 111 5 0 -2 -11 -15 -25z m70 5 c26 -28 15 -31 -12 -3 -12 13
-19 23 -14 23 4 0 16 -9 26 -20z m2756 -25 c-9 -25 -17 -41 -19 -36 -3 10 24
81 31 81 3 0 -3 -20 -12 -45z m-3204 -17 c-2 -13 -4 -5 -4 17 -1 22 1 32 4 23
2 -10 2 -28 0 -40z m930 -60 c-2 -24 -4 -7 -4 37 0 44 2 63 4 43 2 -21 2 -57
0 -80z m2540 65 c-3 -10 -5 -2 -5 17 0 19 2 27 5 18 2 -10 2 -26 0 -35z m643
37 c-8 -5 -19 -10 -25 -10 -5 0 -3 5 5 10 8 5 20 10 25 10 6 0 3 -5 -5 -10z
m340 -21 c15 -28 5 -23 -15 7 -9 15 -12 23 -6 20 6 -4 16 -16 21 -27z m-4820
11 c-8 -5 -19 -10 -25 -10 -5 0 -3 5 5 10 8 5 20 10 25 10 6 0 3 -5 -5 -10z
m3248 -31 c-3 -20 -5 -19 -9 9 -3 20 -2 29 4 23 5 -5 7 -19 5 -32z m-785 -30
c-5 -5 -7 7 -4 29 5 34 6 35 9 8 2 -16 0 -32 -5 -37z m663 11 c9 14 13 17 10
7 -4 -11 -9 -31 -13 -45 l-7 -27 -7 25 c-4 14 -7 41 -6 60 0 33 1 33 4 -5 l5
-40 14 25z m591 28 c-3 -8 -6 -5 -6 6 -1 11 2 17 5 13 3 -3 4 -12 1 -19z m722
18 c-10 -9 -89 -46 -89 -41 0 6 72 44 84 45 5 0 7 -2 5 -4z m-4479 -11 c0 -2
-13 -11 -30 -20 -38 -19 -40 -11 -2 9 31 17 32 18 32 11z m537 -27 c-3 -7 -5
-2 -5 12 0 14 2 19 5 13 2 -7 2 -19 0 -25z m1520 -5 c-3 -10 -5 -4 -5 12 0 17
2 24 5 18 2 -7 2 -21 0 -30z m103 -105 c-9 -32 -15 -38 -38 -37 -24 2 -25 2
-4 6 29 6 42 38 44 116 l2 62 4 -55 c2 -30 -2 -72 -8 -92z m101 111 c-5 -13
-10 -19 -10 -12 -1 15 10 45 15 40 3 -2 0 -15 -5 -28z m140 0 c-5 -13 -10 -19
-10 -12 -1 15 10 45 15 40 3 -2 0 -15 -5 -28z m1389 -23 c-6 -18 -20 -42 -30
-51 -20 -18 -20 -17 -19 26 1 39 2 41 8 14 l7 -30 17 32 c9 18 17 40 18 50 0
10 3 13 6 6 2 -7 0 -28 -7 -47z m-1939 -7 c-5 -26 -9 -34 -10 -19 -1 27 9 73
15 67 2 -2 0 -23 -5 -48z m1149 39 c0 -6 -3 -8 -7 -5 -3 4 -13 1 -22 -6 -14
-11 -14 -10 -2 6 15 20 31 22 31 5z m-2123 -20 c-3 -8 -6 -5 -6 6 -1 11 2 17
5 13 3 -3 4 -12 1 -19z m250 -10 c-3 -7 -5 -2 -5 12 0 14 2 19 5 13 2 -7 2
-19 0 -25z m1661 26 c23 -6 59 -60 48 -72 -3 -3 -6 0 -6 7 0 6 -11 23 -25 36
-18 18 -35 25 -65 25 -38 0 -40 -2 -40 -30 0 -50 -61 -150 -92 -150 -4 0 -8
22 -8 49 0 28 -4 53 -10 56 -5 3 -10 18 -10 33 1 24 3 22 15 -13 8 -22 15 -41
15 -41 0 -1 9 -4 21 -7 12 -3 18 -10 14 -16 -3 -6 -4 -11 -1 -11 12 0 46 71
46 97 0 16 3 33 7 36 8 9 60 9 91 1z m669 -166 c-2 -35 -3 -9 -3 57 0 66 1 94
3 63 2 -32 2 -86 0 -120z m-3637 157 c0 -3 -27 -18 -60 -35 -33 -17 -60 -28
-60 -25 0 2 26 18 58 34 64 34 62 33 62 26z m3401 -22 c-12 -20 -14 -14 -5 12
4 9 9 14 11 11 3 -2 0 -13 -6 -23z m-1224 -5 c-3 -8 -6 -5 -6 6 -1 11 2 17 5
13 3 -3 4 -12 1 -19z m1853 -37 c-12 -21 -40 -48 -61 -60 -33 -19 -38 -27 -42
-64 l-4 -42 -1 46 c-2 43 0 48 28 59 37 15 78 62 87 98 3 15 8 21 10 15 3 -7
-5 -30 -17 -52z m530 54 c0 -2 -12 -11 -27 -19 -16 -8 -102 -69 -193 -136
-163 -121 -246 -170 -285 -169 -11 0 -2 6 20 13 60 19 78 30 225 139 120 90
247 177 257 177 1 0 3 -2 3 -5z m358 -2 c-16 -2 -40 -2 -55 0 -16 2 -3 4 27 4
30 0 43 -2 28 -4z m-4833 -13 c-3 -5 -16 -15 -28 -21 -19 -9 -19 -8 3 10 28
23 34 26 25 11z m622 -22 c-3 -7 -5 -2 -5 12 0 14 2 19 5 13 2 -7 2 -19 0 -25z
m160 -35 c-2 -16 -4 -5 -4 22 0 28 2 40 4 28 2 -13 2 -35 0 -50z m280 45 c-3
-8 -6 -5 -6 6 -1 11 2 17 5 13 3 -3 4 -12 1 -19z m1981 0 c-6 -13 -26 -68 -44
-123 -18 -55 -33 -95 -33 -88 -2 33 71 233 85 233 2 0 -1 -10 -8 -22z m59 -25
c-3 -10 -5 -2 -5 17 0 19 2 27 5 18 2 -10 2 -26 0 -35z m1798 27 c26 -28 15
-31 -12 -3 -12 13 -19 23 -14 23 4 0 16 -9 26 -20z m-2760 -24 c-6 -28 -3 -36
20 -55 15 -11 23 -21 16 -21 -15 0 -51 37 -51 53 0 18 12 57 17 57 2 0 1 -15
-2 -34z m202 12 c-3 -8 -6 -5 -6 6 -1 11 2 17 5 13 3 -3 4 -12 1 -19z m140
-15 c-3 -10 -5 -4 -5 12 0 17 2 24 5 18 2 -7 2 -21 0 -30z m80 19 c-10 -10
-17 -25 -18 -33 0 -11 -2 -11 -6 -1 -5 12 23 52 35 52 3 0 -2 -8 -11 -18z
m1120 -14 c-3 -7 -5 -2 -5 12 0 14 2 19 5 13 2 -7 2 -19 0 -25z m-4390 -15
c-3 -10 -5 -4 -5 12 0 17 2 24 5 18 2 -7 2 -21 0 -30z m1200 -106 c-2 -23 -3
-1 -3 48 0 50 1 68 3 42 2 -26 2 -67 0 -90z m2810 111 c-3 -8 -6 -5 -6 6 -1
11 2 17 5 13 3 -3 4 -12 1 -19z m1268 -17 c-44 -21 -114 -57 -155 -81 -203
-117 -306 -173 -350 -190 -70 -28 -161 -42 -206 -32 -35 8 -31 9 31 8 103 0
226 48 403 156 90 55 328 178 344 178 7 0 -23 -18 -67 -39z m-4625 25 c0 -2
-12 -11 -27 -20 l-28 -17 24 20 c23 21 31 25 31 17z m1295 -6 c-3 -5 -12 -10
-18 -10 -7 0 -6 4 3 10 19 12 23 12 15 0z m75 -9 c-12 -23 -58 -61 -74 -61 -6
0 3 9 21 20 17 10 37 28 43 39 6 12 13 21 16 21 2 0 0 -9 -6 -19z m767 -88
c-2 -21 -4 -4 -4 37 0 41 2 58 4 38 2 -21 2 -55 0 -75z m1300 30 c-2 -16 -4
-3 -4 27 0 30 2 43 4 28 2 -16 2 -40 0 -55z m-4150 0 c-2 -16 -4 -5 -4 22 0
28 2 40 4 28 2 -13 2 -35 0 -50z m1380 35 c-3 -7 -5 -2 -5 12 0 14 2 19 5 13
2 -7 2 -19 0 -25z m286 -29 c16 -13 18 -19 8 -35 -10 -16 -12 -16 -7 -2 3 11
-4 28 -19 42 -14 14 -25 31 -25 38 0 7 6 4 12 -7 6 -11 20 -27 31 -36z m142
31 c-23 -26 -75 -27 -74 -2 0 10 3 12 6 5 7 -18 48 -16 63 2 7 8 15 15 18 15
3 0 -3 -9 -13 -20z m1275 -37 c-23 -41 -23 -38 0 20 8 21 16 34 18 28 2 -5 -6
-27 -18 -48z m627 25 c-3 -7 -5 -2 -5 12 0 14 2 19 5 13 2 -7 2 -19 0 -25z
m350 0 c-3 -8 -6 -5 -6 6 -1 11 2 17 5 13 3 -3 4 -12 1 -19z m-3947 -51 c17
-15 28 -27 24 -27 -15 0 -74 64 -73 79 0 11 3 9 9 -5 4 -11 22 -33 40 -47z
m3767 11 c-2 -13 -4 -5 -4 17 -1 22 1 32 4 23 2 -10 2 -28 0 -40z m-1196 15
c-12 -20 -14 -14 -5 12 4 9 9 14 11 11 3 -2 0 -13 -6 -23z m1753 -7 c-3 -15
-8 -25 -11 -23 -2 3 -1 17 3 31 3 15 8 25 11 23 2 -3 1 -17 -3 -31z m1296 26
c0 -5 -7 -17 -15 -28 -14 -18 -14 -17 -4 9 12 27 19 34 19 19z m-5110 -6 c0
-2 -12 -11 -27 -20 l-28 -17 24 20 c23 21 31 25 31 17z m747 -18 c-3 -8 -6 -5
-6 6 -1 11 2 17 5 13 3 -3 4 -12 1 -19z m1870 -15 c-3 -10 -5 -4 -5 12 0 17 2
24 5 18 2 -7 2 -21 0 -30z m102 -37 c6 -4 10 -19 10 -34 -2 -27 -2 -27 -6 -2
-3 13 -14 35 -24 49 -10 13 -19 31 -19 40 1 9 7 2 14 -15 8 -18 19 -35 25 -38z
m708 32 c-3 -7 -5 -2 -5 12 0 14 2 19 5 13 2 -7 2 -19 0 -25z m-3657 12 c-8
-5 -19 -10 -25 -10 -5 0 -3 5 5 10 8 5 20 10 25 10 6 0 3 -5 -5 -10z m1420 0
c-8 -5 -33 -9 -55 -8 l-40 1 45 7 c25 4 50 8 55 8 6 1 3 -3 -5 -8z m3850 -9
c-5 -11 -15 -23 -21 -27 -6 -3 -3 5 6 20 20 30 30 35 15 7z m-4103 -38 c-3
-10 -5 -2 -5 17 0 19 2 27 5 18 2 -10 2 -26 0 -35z m3889 31 c-9 -8 -17 -25
-17 -37 -1 -16 -2 -18 -6 -5 -5 20 13 58 28 58 6 0 3 -7 -5 -16z m90 -6 l19
-23 -25 20 c-14 11 -27 21 -29 22 -2 2 0 3 6 3 5 0 18 -10 29 -22z m-4116 -10
c0 -18 -2 -20 -9 -8 -6 8 -7 18 -5 22 9 14 14 9 14 -14z m1216 -57 c-20 -39
-38 -71 -41 -71 -3 0 12 34 32 75 20 41 39 73 41 71 2 -2 -13 -36 -32 -75z
m-2545 -34 c19 -9 28 -17 20 -17 -22 0 -79 48 -96 80 -25 48 -17 47 14 -1 15
-25 43 -53 62 -62z m1016 71 c-3 -7 -5 -2 -5 12 0 14 2 19 5 13 2 -7 2 -19 0
-25z m604 5 c-12 -20 -14 -14 -5 12 4 9 9 14 11 11 3 -2 0 -13 -6 -23z m116 5
c-3 -8 -6 -5 -6 6 -1 11 2 17 5 13 3 -3 4 -12 1 -19z m1708 2 c-10 -11 -33
-25 -51 -32 -22 -8 -34 -19 -37 -37 -11 -51 -89 -131 -129 -131 -7 0 0 7 17
16 47 24 66 45 91 98 17 37 31 53 62 66 22 10 43 23 46 29 4 6 10 11 13 11 3
0 -2 -9 -12 -20z m32 -77 c-2 -21 -4 -6 -4 32 0 39 2 55 4 38 2 -18 2 -50 0
-70z m2112 71 c-25 -27 -89 -64 -111 -64 -7 0 10 11 37 24 28 13 59 33 69 45
11 11 21 21 24 21 3 0 -5 -12 -19 -26z m-5396 9 c-7 -2 -19 -2 -25 0 -7 3 -2
5 12 5 14 0 19 -2 13 -5z m247 2 c0 -2 -10 -9 -22 -15 -22 -11 -22 -10 -4 4
21 17 26 19 26 11z m1457 -27 c-3 -7 -5 -2 -5 12 0 14 2 19 5 13 2 -7 2 -19 0
-25z m164 5 c-12 -20 -14 -14 -5 12 4 9 9 14 11 11 3 -2 0 -13 -6 -23z m569
-1 c0 -15 -2 -15 -10 -2 -8 12 -10 12 -10 1 0 -8 -2 -12 -5 -9 -3 3 -3 13 1
22 7 19 24 11 24 -12z m1317 -4 c-3 -7 -5 -2 -5 12 0 14 2 19 5 13 2 -7 2 -19
0 -25z m-3814 15 c-13 -2 -35 -2 -50 0 -16 2 -5 4 22 4 28 0 40 -2 28 -4z
m1117 -30 c-11 -17 -11 -17 -6 0 3 10 6 24 7 30 0 9 2 9 5 0 3 -7 0 -20 -6
-30z m2547 5 c-3 -7 -5 -2 -5 12 0 14 2 19 5 13 2 -7 2 -19 0 -25z m288 -66
c-5 -6 -25 61 -24 82 0 12 6 -1 14 -29 7 -27 12 -51 10 -53z m1445 93 c0 -2
-13 -11 -29 -20 -20 -10 -32 -12 -36 -4 -4 6 -4 13 -1 16 3 4 6 1 6 -6 0 -8 8
-7 28 3 31 17 32 18 32 11z m-4223 -25 c-3 -11 -1 -22 3 -25 13 -8 4 -40 -11
-40 -8 0 -19 -4 -26 -8 -7 -4 -2 15 10 42 23 52 33 65 24 31z m1636 -11 c-24
-41 -89 -99 -111 -99 -10 1 -4 6 15 15 17 7 48 36 69 64 43 58 54 65 27 20z
m77 11 c0 -11 -2 -20 -4 -20 -2 0 -6 9 -9 20 -3 11 -1 20 4 20 5 0 9 -9 9 -20z
m-2630 5 c0 -6 -117 -65 -127 -65 -4 1 21 16 57 35 72 38 70 37 70 30z m1011
-109 c13 -9 19 -16 13 -16 -15 0 -58 50 -72 83 -22 52 -12 52 12 1 13 -28 34
-59 47 -68z m717 83 c-3 -8 -7 -3 -11 10 -4 17 -3 21 5 13 5 -5 8 -16 6 -23z
m2187 -15 c-19 -45 -43 -74 -62 -74 -9 0 -13 14 -11 53 l2 52 3 -47 c2 -27 8
-48 12 -48 5 0 21 24 37 54 32 62 43 67 19 10z m116 -62 c11 -15 33 -35 47
-44 15 -10 22 -18 17 -18 -22 0 -82 60 -100 99 l-18 41 -19 -42 c-22 -50 -75
-108 -97 -108 -9 0 -2 9 16 19 34 21 77 87 89 136 l7 29 19 -43 c10 -23 27
-55 39 -69z m-1421 90 c0 -5 -7 -17 -15 -28 -14 -18 -14 -17 -4 9 12 27 19 34
19 19z m168 -57 c0 -16 -2 -15 -8 5 -4 14 -8 34 -8 45 0 16 2 15 8 -5 4 -14 8
-34 8 -45z m-2141 33 c-3 -8 -6 -5 -6 6 -1 11 2 17 5 13 3 -3 4 -12 1 -19z
m477 -17 c-5 -6 -34 20 -34 30 0 5 8 1 18 -8 10 -10 17 -20 16 -22z m46 35 c0
-2 -8 -10 -17 -17 -16 -13 -17 -12 -4 4 13 16 21 21 21 13z m1185 -123 c74
-42 146 -26 204 44 17 21 31 33 31 27 0 -13 -68 -78 -97 -93 -35 -18 -95 -13
-138 12 -37 21 -105 105 -105 130 0 6 15 -13 33 -43 20 -35 46 -63 72 -77z
m1195 68 c-6 -12 -16 -21 -22 -21 -6 0 -4 8 5 18 10 10 18 29 18 43 2 23 2 23
6 2 2 -12 -1 -31 -7 -42z m1459 33 c14 -12 -19 -1 -35 12 -18 14 -18 14 6 3
14 -6 27 -13 29 -15z m-4193 -24 c4 0 17 8 28 18 21 17 21 17 2 -5 -11 -13
-25 -23 -31 -23 -13 0 -26 22 -24 43 0 7 4 2 9 -10 5 -13 13 -23 16 -23z m390
13 c-16 -32 -63 -79 -71 -71 -3 3 6 13 19 22 14 9 33 30 41 46 9 17 18 30 21
30 2 0 -2 -12 -10 -27z m184 -8 c0 -5 -5 -3 -10 5 -5 8 -10 20 -10 25 0 6 5 3
10 -5 5 -8 10 -19 10 -25z m2081 -21 c13 -7 18 -13 11 -14 -17 0 -62 45 -62
62 1 7 7 2 14 -11 7 -13 24 -30 37 -37z m738 -32 c17 -6 31 -13 31 -16 0 -3
-14 0 -31 6 -31 11 -69 60 -69 88 0 8 9 -4 19 -26 13 -29 28 -44 50 -52z
m-2558 60 c-5 -9 -19 -26 -32 -37 -17 -15 -15 -10 7 17 32 41 40 48 25 20z
m256 -34 c-2 -13 -4 -5 -4 17 -1 22 1 32 4 23 2 -10 2 -28 0 -40z m835 -67
c24 -11 37 -21 30 -21 -41 0 -132 89 -132 129 0 9 13 -7 30 -35 21 -37 41 -57
72 -73z m-1198 93 c3 -8 2 -12 -4 -9 -6 3 -10 10 -10 16 0 14 7 11 14 -7z
m140 -35 c-30 -43 -77 -79 -104 -79 -8 0 3 9 26 19 27 12 51 34 70 64 16 24
31 43 33 41 2 -2 -9 -22 -25 -45z m1170 -4 c-18 -27 -55 -32 -60 -7 -1 7 0 8
3 2 11 -24 42 -9 55 26 7 21 14 30 16 21 2 -9 -4 -28 -14 -42z m2214 48 c-10
-2 -26 -2 -35 0 -10 3 -2 5 17 5 19 0 27 -2 18 -5z m-4357 -97 c13 -9 19 -16
13 -16 -22 0 -74 73 -74 102 0 7 9 -6 19 -28 10 -23 29 -49 42 -58z m2546 47
c-3 -10 -5 -2 -5 17 0 19 2 27 5 18 2 -10 2 -26 0 -35z m-3390 31 c-3 -3 -12
-4 -19 -1 -8 3 -5 6 6 6 11 1 17 -2 13 -5z m2553 -14 c6 -11 8 -20 6 -20 -3 0
-10 9 -16 20 -6 11 -8 20 -6 20 3 0 10 -9 16 -20z m-2727 3 c-7 -2 -19 -2 -25
0 -7 3 -2 5 12 5 14 0 19 -2 13 -5z m130 0 c-7 -2 -21 -2 -30 0 -10 3 -4 5 12
5 17 0 24 -2 18 -5z m1659 -73 c6 0 8 -3 5 -6 -9 -9 -74 41 -88 67 -6 11 8 2
30 -20 23 -23 46 -41 53 -41z m294 -27 c-5 -5 -36 86 -35 101 0 6 9 -13 20
-43 10 -30 17 -56 15 -58z m-201 79 c-3 -3 -11 0 -18 7 -9 10 -8 11 6 5 10 -3
15 -9 12 -12z m2218 -70 c-4 -10 -56 35 -70 61 -13 26 -10 25 28 -14 24 -24
43 -45 42 -47z m-665 26 c19 -22 9 -24 -12 -2 -9 8 -15 25 -15 37 1 20 2 21 6
2 3 -11 12 -28 21 -37z m-1025 11 c-22 -37 -98 -109 -115 -109 -7 0 1 9 19 20
18 10 49 42 70 70 42 57 53 64 26 19z m-1266 -14 c-20 -18 -39 -25 -65 -24
l-37 2 43 6 c23 4 50 15 60 24 9 9 19 17 22 17 3 0 -8 -12 -23 -25z m271 18
c-10 -2 -28 -2 -40 0 -13 2 -5 4 17 4 22 1 32 -1 23 -4z m2138 -28 c-4 -11
-19 -14 -53 -13 l-48 2 48 3 c40 4 47 7 48 26 0 12 3 16 6 9 3 -7 2 -19 -1
-27z m-1329 3 c-3 -8 -6 -5 -6 6 -1 11 2 17 5 13 3 -3 4 -12 1 -19z m226 -9
c-54 -93 -142 -160 -208 -158 -24 1 -21 3 15 10 61 12 117 54 164 122 43 62
58 75 29 26z m-610 -6 c-7 -2 -19 -2 -25 0 -7 3 -2 5 12 5 14 0 19 -2 13 -5z
m2314 -9 c-3 -3 -12 -4 -19 -1 -8 3 -5 6 6 6 11 1 17 -2 13 -5z m-1889 -51 c9
-7 11 -13 4 -13 -12 0 -42 39 -42 55 0 5 6 1 12 -10 6 -11 18 -26 26 -32z
m-129 -37 c9 -10 30 -25 46 -32 17 -7 23 -13 13 -14 -32 0 -109 83 -108 117 1
4 8 -5 17 -22 8 -16 23 -38 32 -49z"/>
<path d="M3677 1681 c-4 -17 -3 -21 5 -13 5 5 8 16 6 23 -3 8 -7 3 -11 -10z"/>
</g>
</svg>
